<mxfile host="app.diagrams.net" modified="2023-06-01T13:22:53.106Z" agent="Mozilla/5.0 (Windows NT 10.0; Win64; x64) AppleWebKit/537.36 (KHTML, like Gecko) Chrome/113.0.0.0 Safari/537.36" version="21.3.6" etag="doHFC6y4Joa3pz1rHLnj" type="github">
  <diagram name="第 1 页" id="4vI98hUYMto_pe6T1ZAT">
    <mxGraphModel>
      <root>
        <mxCell id="0" />
        <mxCell id="1" parent="0" />
      </root>
    </mxGraphModel>
  </diagram>
</mxfile>
